<?xml version="1.0" standalone="no"?>
<!DOCTYPE svg PUBLIC "-//W3C//DTD SVG 20010904//EN"
 "http://www.w3.org/TR/2001/REC-SVG-20010904/DTD/svg10.dtd">
<svg version="1.0" xmlns="http://www.w3.org/2000/svg"
 width="260.000000pt" height="260.000000pt" viewBox="0 0 260.000000 260.000000"
 preserveAspectRatio="xMidYMid meet">
<metadata>
Created by potrace 1.11, written by Peter Selinger 2001-2013
</metadata>
<g transform="translate(0.000000,260.000000) scale(0.100000,-0.100000)"
fill="#000000" stroke="none">
<path d="M0 1300 l0 -1300 1300 0 1300 0 0 1300 0 1300 -1300 0 -1300 0 0
-1300z m1227 914 c2 -7 -17 -14 -48 -18 -38 -5 -59 -15 -81 -36 l-29 -29 3
-393 c3 -380 4 -394 25 -433 24 -46 55 -76 100 -99 31 -15 33 -15 43 3 8 15 5
28 -10 55 l-21 34 73 49 c40 26 76 49 79 51 3 1 26 -45 49 -103 25 -61 49
-105 57 -105 25 0 87 38 119 72 83 87 94 151 94 535 0 378 -1 381 -112 398
-31 5 -48 12 -48 21 0 12 30 14 175 12 98 -2 176 -7 178 -12 1 -6 -23 -16 -53
-24 -100 -25 -94 1 -100 -420 -6 -355 -7 -369 -29 -426 -30 -76 -99 -146 -166
-171 -28 -10 -51 -19 -53 -21 -8 -5 315 -761 336 -785 13 -16 38 -31 58 -35
19 -3 34 -12 34 -20 0 -12 -40 -14 -225 -14 -193 0 -225 2 -225 15 0 11 11 15
35 15 20 0 49 7 65 15 48 25 43 55 -46 266 l-46 109 -190 -2 -189 -3 -30 -70
c-16 -38 -41 -105 -54 -148 -24 -74 -24 -81 -10 -111 18 -37 51 -56 95 -56 20
0 30 -5 30 -15 0 -13 -24 -15 -159 -15 -97 0 -162 4 -166 10 -3 6 2 13 12 16
55 17 84 37 110 76 16 24 87 192 157 373 71 182 132 338 137 347 8 14 4 19
-18 23 -122 27 -198 72 -239 141 -49 83 -54 130 -54 507 0 208 -4 356 -10 367
-10 20 -59 40 -96 40 -15 0 -24 6 -24 15 0 13 30 15 232 13 159 -2 233 -6 235
-14z"/>
<path d="M1176 950 c-42 -105 -76 -192 -76 -195 0 -3 77 -5 170 -5 114 0 170
4 170 11 0 6 -31 83 -69 172 -38 89 -72 172 -76 185 -3 12 -14 22 -25 22 -14
0 -34 -40 -94 -190z"/>
</g>
</svg>
